<?xml version="1.0" encoding="UTF-8"?><svg id="Layer_1" xmlns="http://www.w3.org/2000/svg" viewBox="0 0 860 408"><defs><style>.cls-1{fill:#fff;}</style></defs><path class="cls-1" d="M852.95,155.42c-.45-2.03-1.47-4.26-2.92-5.73-10.43-10.5-20.28-21.73-31.76-30.93-13.66-10.99-29.49-14.87-46.18-5.84-6.13,3.3-12.44,6.55-17.81,10.88-21.53,17.41-46.4,24.45-72.7,26.79l-38.98,1.16,38.49-16.07V40.04c0-8.18-2.88-15.27-8.6-21.26-6-5.73-13.08-8.6-21.26-8.6h-90.82c-8.18,0-15.27,2.87-21.26,8.6-5.73,6-8.6,13.08-8.6,21.26,0-8.18-3.01-15.27-9-21.26-5.71-5.73-12.82-8.6-21.26-8.6h-90.4c-8.47,0-15.56,2.87-21.28,8.6-6,6-9,13.08-9,21.26v111.59h-59.64l-38.69-.02,37.8-15.76V10.17h-60.13V151.61c-20.55,0-41.12,0-61.67,.09-27.23,.11-54.51,.94-81.24-5.62-7.42-1.83-15.8-3.39-21.48-7.91-10.72-8.54-22.53-12.97-35.5-12.44-31.51,1.31-52.37,26.37-50.97,54.74,1.89,38.16,44.8,62.49,77.22,42.37,21.71-13.48,45.33-18.25,70.14-18.83,21.33-.49,42.68,.11,64.03,.11,11.86,0,25.12,0,39.47,.02v47.4h-60.55v-30.29h-60.13v60.13c0,8.47,3.01,15.56,9,21.28,5.73,6,12.82,9,21.26,9h120.68c8.18,0,15.27-3.01,21.26-9,5.73-5.73,8.6-12.82,8.6-21.28v-77.25c19.43,0,39.78-.02,60.53-.02v107.56h60.13v-107.56c20.44,0,40.76,0,60.55,.02v107.53h60.13v-107.53c22.02,.04,42.48,.04,60.53,.07v107.47h60.15v-105.22c.47,.04,.96,.11,1.43,.16,18.99,2.14,37.75,7.33,51.97,20.41,28.3,26.03,62,23.49,92.56,7.91,2.61-1.34,4.06-5.01,6.02-7.6-2.7-1.25-5.28-3.03-8.11-3.68-12.46-2.85-25.05-5.17-37.46-8.16-6.22-1.52-10.79-5.68-13.02-11.86-5.01-13.77-3.63-27.03,4.01-39.47,8.49-13.8,16.2-16.89,31.85-12.7,12.15,3.28,24.14,7.13,36.28,10.5,1.76,.49,4.66,.38,5.68-.71,1.09-1.18,1.05-3.94,.65-5.84ZM58.08,210.49c-18.83,0-34.1-15.27-34.1-34.1s15.27-34.1,34.1-34.1,34.1,15.27,34.1,34.1-15.27,34.1-34.1,34.1Zm442.2-58.86h-97.84l37.29-15.56V70.33h60.55v81.3Zm120.66,.02c-2.3-.02-4.59-.02-6.89-.02h-90.71l37.06-15.47V70.33h60.53v81.33Z"/><g><path class="cls-1" d="M138.25,397.39v-46.72h22.76l7.01,34.74h.48l7.07-34.74h22.1v46.72h-12.58v-34.74h-.36l-7.07,34.74h-19.47l-7.01-34.74h-.36v34.74h-12.58Z"/><path class="cls-1" d="M256.11,350.67v10.78h-25.76v7.19h23.36v10.18h-23.36v7.79h25.88v10.78h-38.46v-46.72h38.34Z"/><path class="cls-1" d="M298.42,398.11c-19.11,0-23.9-4.79-23.9-24.08s4.79-24.08,23.9-24.08,23.84,4.07,23.72,20.43h-13.18c.12-9.22-.96-10.24-10.54-10.24s-10.72,1.38-10.72,13.9,1.08,13.9,10.72,13.9,10.66-1.02,10.54-10.36h13.18c.12,16.41-4.61,20.55-23.72,20.55Z"/><path class="cls-1" d="M341.03,350.67h12.58v17.49h17.97v-17.49h12.58v46.72h-12.58v-18.45h-17.97v18.45h-12.58v-46.72Z"/><path class="cls-1" d="M452.18,397.39h-14.38l-2.52-9.11h-17.97l-2.82,9.11h-13.54l15.4-46.72h20.84l14.98,46.72Zm-20.01-19.29l-5.57-17.25h-.36l-5.69,17.25h11.62Z"/><path class="cls-1" d="M468.97,350.67h11.92l20.66,25.52h.36v-25.52h12.58v46.72h-11.86l-20.73-25.46h-.36v25.46h-12.58v-46.72Z"/><path class="cls-1" d="M534.59,350.67h12.58v46.72h-12.58v-46.72Z"/><path class="cls-1" d="M589.95,398.11c-19.11,0-23.9-4.79-23.9-24.08s4.79-24.08,23.9-24.08,23.84,4.07,23.72,20.43h-13.18c.12-9.22-.96-10.24-10.54-10.24s-10.72,1.38-10.72,13.9,1.08,13.9,10.72,13.9,10.66-1.02,10.54-10.36h13.18c.12,16.41-4.62,20.55-23.72,20.55Z"/><path class="cls-1" d="M681.09,397.39h-14.38l-2.52-9.11h-17.97l-2.82,9.11h-13.54l15.4-46.72h20.84l14.97,46.72Zm-20.01-19.29l-5.57-17.25h-.36l-5.69,17.25h11.62Z"/></g></svg>